<svg xmlns="http://www.w3.org/2000/svg" xmlns:xlink="http://www.w3.org/1999/xlink" id="Create_1_" width="24" height="24" x="0" y="0" enable-background="new 0 0 24 24" version="1.1" viewBox="0 0 24 24" xml:space="preserve"><g id="Create"><g><path fill="#B2B2B2" fill-rule="evenodd" d="M13,3l-1-2l-1,2l1,2L13,3z M3,3l1,2l2,1L5,4L3,3z M21,3l-2,1 l-1,2l2-1L21,3z M3,21l2-1l1-2l-2,1L3,21z M21,11l-2,1l2,1l2-1L21,11z M18,18l1,2l2,1l-1-2L18,18z M12,7c-2.761,0-5,2.238-5,5 s2.239,5,5,5c2.762,0,5-2.238,5-5S14.762,7,12,7z M11,21l1,2l1-2l-1-2L11,21z M5,12l-2-1l-2,1l2,1L5,12z" clip-rule="evenodd"/></g></g></svg>