<svg xmlns="http://www.w3.org/2000/svg" xmlns:xlink="http://www.w3.org/1999/xlink" id="Display_1_" width="24" height="24" x="0" y="0" enable-background="new 0 0 24 24" version="1.1" viewBox="0 0 24 24" xml:space="preserve"><g id="Display"><g><path fill="#B2B2B2" fill-rule="evenodd" d="M20,3H4C2.896,3,2,3.896,2,5v10c0,1.104,0.896,2,2,2h5l1,1v1 l-1,1H6c-0.621,0-2,1.379-2,2h16c0-0.621-1.379-2-2-2h-3l-1-1v-1l1-1h5c1.104,0,2-0.896,2-2V5C22,3.896,21.104,3,20,3z M20,14 l-1,1H5l-1-1V6l1-1h14l1,1V14z" clip-rule="evenodd"/></g></g></svg>
