<svg xmlns="http://www.w3.org/2000/svg" xmlns:xlink="http://www.w3.org/1999/xlink" id="Show_Skeleton_1_" width="32" height="32" x="0" y="0" enable-background="new 0 0 32 32" version="1.1" viewBox="0 0 32 32" xml:space="preserve"><g id="Show_Skeleton"><g><path fill="#BBB" fill-rule="evenodd" d="M27,18c-1.104,0-2.104,0.447-2.828,1.172L12.828,7.828 C13.552,7.104,14,6.104,14,5c0-2.209-1.791-4-4-4S6,2.791,6,5c0,0.423,0.083,0.822,0.205,1.205C5.823,6.083,5.423,6,5,6 c-2.209,0-4,1.791-4,4s1.791,4,4,4c1.104,0,2.104-0.448,2.828-1.172l11.344,11.344C18.447,24.896,18,25.896,18,27 c0,2.209,1.791,4,4,4s4-1.791,4-4c0-0.423-0.084-0.822-0.205-1.205C26.178,25.916,26.577,26,27,26c2.209,0,4-1.791,4-4 S29.209,18,27,18z" clip-rule="evenodd"/></g></g></svg>