<svg xmlns="http://www.w3.org/2000/svg" xmlns:xlink="http://www.w3.org/1999/xlink" id="Tree_1_" width="24" height="24" x="0" y="0" enable-background="new 0 0 24 24" version="1.1" viewBox="0 0 24 24" xml:space="preserve"><g id="Tree"><g><path fill="#BBB" fill-rule="evenodd" d="M13.092,16c0.207,0.581,0.756,1,1.408,1h6 c0.828,0,1.5-0.672,1.5-1.5S21.328,14,20.5,14h-6c-0.652,0-1.201,0.419-1.408,1H7v-4h6.092c0.207,0.581,0.756,1,1.408,1h6 c0.828,0,1.5-0.672,1.5-1.5S21.328,9,20.5,9h-6c-0.652,0-1.201,0.419-1.408,1H7V5h2.5C10.329,5,11,4.328,11,3.5S10.329,2,9.5,2h-6 C2.671,2,2,2.672,2,3.5S2.671,5,3.5,5H6v15l1,1h6.092c0.207,0.581,0.756,1,1.408,1h6c0.828,0,1.5-0.672,1.5-1.5S21.328,19,20.5,19 h-6c-0.652,0-1.201,0.419-1.408,1H7v-4H13.092z" clip-rule="evenodd"/></g></g></svg>